%TF.GenerationSoftware,KiCad,Pcbnew,(6.0.9-0)*%
%TF.CreationDate,2023-03-22T16:58:05+10:00*%
%TF.ProjectId,Feather M0 Temp Sensor,46656174-6865-4722-904d-302054656d70,rev?*%
%TF.SameCoordinates,Original*%
%TF.FileFunction,Legend,Top*%
%TF.FilePolarity,Positive*%
%FSLAX46Y46*%
G04 Gerber Fmt 4.6, Leading zero omitted, Abs format (unit mm)*
G04 Created by KiCad (PCBNEW (6.0.9-0)) date 2023-03-22 16:58:05*
%MOMM*%
%LPD*%
G01*
G04 APERTURE LIST*
%ADD10C,0.150000*%
%ADD11C,0.120000*%
G04 APERTURE END LIST*
D10*
%TO.C,U1*%
X118832380Y-70611904D02*
X119641904Y-70611904D01*
X119737142Y-70564285D01*
X119784761Y-70516666D01*
X119832380Y-70421428D01*
X119832380Y-70230952D01*
X119784761Y-70135714D01*
X119737142Y-70088095D01*
X119641904Y-70040476D01*
X118832380Y-70040476D01*
X119832380Y-69040476D02*
X119832380Y-69611904D01*
X119832380Y-69326190D02*
X118832380Y-69326190D01*
X118975238Y-69421428D01*
X119070476Y-69516666D01*
X119118095Y-69611904D01*
%TO.C,J1*%
X93432380Y-58753333D02*
X94146666Y-58753333D01*
X94289523Y-58800952D01*
X94384761Y-58896190D01*
X94432380Y-59039047D01*
X94432380Y-59134285D01*
X94432380Y-57753333D02*
X94432380Y-58324761D01*
X94432380Y-58039047D02*
X93432380Y-58039047D01*
X93575238Y-58134285D01*
X93670476Y-58229523D01*
X93718095Y-58324761D01*
%TO.C,J2*%
X128992380Y-73993333D02*
X129706666Y-73993333D01*
X129849523Y-74040952D01*
X129944761Y-74136190D01*
X129992380Y-74279047D01*
X129992380Y-74374285D01*
X129087619Y-73564761D02*
X129040000Y-73517142D01*
X128992380Y-73421904D01*
X128992380Y-73183809D01*
X129040000Y-73088571D01*
X129087619Y-73040952D01*
X129182857Y-72993333D01*
X129278095Y-72993333D01*
X129420952Y-73040952D01*
X129992380Y-73612380D01*
X129992380Y-72993333D01*
D11*
%TO.C,U1*%
X109855000Y-71120000D02*
X108585000Y-71120000D01*
X114935000Y-71120000D02*
X113665000Y-71120000D01*
X117475000Y-71120000D02*
X116205000Y-71120000D01*
X120015000Y-71120000D02*
X118745000Y-71120000D01*
%TO.C,J1*%
X93375000Y-57185000D02*
X94645000Y-57185000D01*
X98455000Y-57125000D02*
X99725000Y-57125000D01*
%TO.C,J2*%
X130175000Y-74870000D02*
X128905000Y-74870000D01*
X127635000Y-74870000D02*
X126365000Y-74870000D01*
%TD*%
M02*
