M48
; DRILL file {KiCad (6.0.9-0)} date Thursday, 11 May 2023 at 02:50:17 pm
; FORMAT={-:-/ absolute / inch / decimal}
; #@! TF.CreationDate,2023-05-11T14:50:17+10:00
; #@! TF.GenerationSoftware,Kicad,Pcbnew,(6.0.9-0)
; #@! TF.FileFunction,Plated,1,2,PTH
FMAT,2
INCH
; #@! TA.AperFunction,Plated,PTH,ComponentDrill
T1C0.0394
%
G90
G05
T1
X3.9006Y-2.199
X4.0Y-3.0
X4.0006Y-2.199
X4.1Y-3.0
X4.1006Y-2.199
X4.2Y-3.0
X4.2006Y-2.199
X4.3Y-2.85
X4.3Y-3.0
X4.3006Y-2.199
X4.4Y-2.85
X4.4Y-3.0
X4.4006Y-2.199
X4.5Y-2.85
X4.5Y-3.0
X4.5006Y-2.199
X4.6Y-2.85
X4.6Y-3.0
X4.6006Y-2.199
X4.7Y-2.85
X4.7Y-3.0
X4.7006Y-2.199
X4.8Y-3.0
X4.8006Y-2.199
X4.9Y-3.0
X4.9006Y-2.199
X5.0Y-3.0
X5.0006Y-2.199
X5.1Y-3.0
X5.1006Y-2.199
T0
M30
