%TF.GenerationSoftware,KiCad,Pcbnew,(6.0.9-0)*%
%TF.CreationDate,2023-05-11T14:50:20+10:00*%
%TF.ProjectId,Feather M0 Temp Sensor,46656174-6865-4722-904d-302054656d70,rev?*%
%TF.SameCoordinates,Original*%
%TF.FileFunction,Legend,Top*%
%TF.FilePolarity,Positive*%
%FSLAX46Y46*%
G04 Gerber Fmt 4.6, Leading zero omitted, Abs format (unit mm)*
G04 Created by KiCad (PCBNEW (6.0.9-0)) date 2023-05-11 14:50:20*
%MOMM*%
%LPD*%
G01*
G04 APERTURE LIST*
%ADD10C,0.150000*%
%ADD11C,0.120000*%
G04 APERTURE END LIST*
D10*
%TO.C,GND*%
X98560000Y-60451904D02*
X98512380Y-60547142D01*
X98512380Y-60690000D01*
X98560000Y-60832857D01*
X98655238Y-60928095D01*
X98750476Y-60975714D01*
X98940952Y-61023333D01*
X99083809Y-61023333D01*
X99274285Y-60975714D01*
X99369523Y-60928095D01*
X99464761Y-60832857D01*
X99512380Y-60690000D01*
X99512380Y-60594761D01*
X99464761Y-60451904D01*
X99417142Y-60404285D01*
X99083809Y-60404285D01*
X99083809Y-60594761D01*
X99512380Y-59975714D02*
X98512380Y-59975714D01*
X99512380Y-59404285D01*
X98512380Y-59404285D01*
X99512380Y-58928095D02*
X98512380Y-58928095D01*
X98512380Y-58690000D01*
X98560000Y-58547142D01*
X98655238Y-58451904D01*
X98750476Y-58404285D01*
X98940952Y-58356666D01*
X99083809Y-58356666D01*
X99274285Y-58404285D01*
X99369523Y-58451904D01*
X99464761Y-58547142D01*
X99512380Y-58690000D01*
X99512380Y-58928095D01*
%TO.C,SDA*%
X119784761Y-69794285D02*
X119832380Y-69651428D01*
X119832380Y-69413333D01*
X119784761Y-69318095D01*
X119737142Y-69270476D01*
X119641904Y-69222857D01*
X119546666Y-69222857D01*
X119451428Y-69270476D01*
X119403809Y-69318095D01*
X119356190Y-69413333D01*
X119308571Y-69603809D01*
X119260952Y-69699047D01*
X119213333Y-69746666D01*
X119118095Y-69794285D01*
X119022857Y-69794285D01*
X118927619Y-69746666D01*
X118880000Y-69699047D01*
X118832380Y-69603809D01*
X118832380Y-69365714D01*
X118880000Y-69222857D01*
X119832380Y-68794285D02*
X118832380Y-68794285D01*
X118832380Y-68556190D01*
X118880000Y-68413333D01*
X118975238Y-68318095D01*
X119070476Y-68270476D01*
X119260952Y-68222857D01*
X119403809Y-68222857D01*
X119594285Y-68270476D01*
X119689523Y-68318095D01*
X119784761Y-68413333D01*
X119832380Y-68556190D01*
X119832380Y-68794285D01*
X119546666Y-67841904D02*
X119546666Y-67365714D01*
X119832380Y-67937142D02*
X118832380Y-67603809D01*
X119832380Y-67270476D01*
X129944761Y-73604285D02*
X129992380Y-73461428D01*
X129992380Y-73223333D01*
X129944761Y-73128095D01*
X129897142Y-73080476D01*
X129801904Y-73032857D01*
X129706666Y-73032857D01*
X129611428Y-73080476D01*
X129563809Y-73128095D01*
X129516190Y-73223333D01*
X129468571Y-73413809D01*
X129420952Y-73509047D01*
X129373333Y-73556666D01*
X129278095Y-73604285D01*
X129182857Y-73604285D01*
X129087619Y-73556666D01*
X129040000Y-73509047D01*
X128992380Y-73413809D01*
X128992380Y-73175714D01*
X129040000Y-73032857D01*
X129992380Y-72604285D02*
X128992380Y-72604285D01*
X128992380Y-72366190D01*
X129040000Y-72223333D01*
X129135238Y-72128095D01*
X129230476Y-72080476D01*
X129420952Y-72032857D01*
X129563809Y-72032857D01*
X129754285Y-72080476D01*
X129849523Y-72128095D01*
X129944761Y-72223333D01*
X129992380Y-72366190D01*
X129992380Y-72604285D01*
X129706666Y-71651904D02*
X129706666Y-71175714D01*
X129992380Y-71747142D02*
X128992380Y-71413809D01*
X129992380Y-71080476D01*
D11*
%TO.C,GND*%
X100980000Y-57125000D02*
X102250000Y-57125000D01*
X98440000Y-57125000D02*
X99710000Y-57125000D01*
%TO.C,SDA*%
X109855000Y-71120000D02*
X108585000Y-71120000D01*
X117475000Y-71120000D02*
X116205000Y-71120000D01*
X114935000Y-71120000D02*
X113665000Y-71120000D01*
X120015000Y-71120000D02*
X118745000Y-71120000D01*
X130175000Y-74870000D02*
X128905000Y-74870000D01*
X127635000Y-74870000D02*
X126365000Y-74870000D01*
%TD*%
M02*
