M48
; DRILL file {KiCad (6.0.9-0)} date Wednesday, 22 March 2023 at 04:58:03 pm
; FORMAT={-:-/ absolute / inch / decimal}
; #@! TF.CreationDate,2023-03-22T16:58:03+10:00
; #@! TF.GenerationSoftware,Kicad,Pcbnew,(6.0.9-0)
; #@! TF.FileFunction,Plated,1,2,PTH
FMAT,2
INCH
; #@! TA.AperFunction,Plated,PTH,ComponentDrill
T1C0.0394
%
G90
G05
T1
X3.7012Y-2.199
X3.8012Y-2.199
X3.9012Y-2.199
X4.0Y-3.0
X4.0012Y-2.199
X4.1Y-3.0
X4.1012Y-2.199
X4.2Y-3.0
X4.2012Y-2.199
X4.3Y-2.85
X4.3Y-3.0
X4.3012Y-2.199
X4.4Y-2.85
X4.4Y-3.0
X4.4012Y-2.199
X4.5Y-2.85
X4.5Y-3.0
X4.5012Y-2.199
X4.6Y-2.85
X4.6Y-3.0
X4.6012Y-2.199
X4.7Y-2.85
X4.7Y-3.0
X4.7012Y-2.199
X4.8Y-3.0
X4.8012Y-2.199
X4.9Y-3.0
X4.9012Y-2.199
X5.0Y-3.0
X5.0012Y-2.199
X5.1Y-3.0
X5.1012Y-2.199
T0
M30
